<?xml version="1.0" encoding="UTF-8" standalone="no"?>
<!-- Uploaded to: SVG Repo, www.svgrepo.com, Generator: SVG Repo Mixer Tools -->

<svg
   width="50.000015"
   height="53.302547"
   viewBox="0 0 1.5000005 1.5990764"
   fill="none"
   version="1.1"
   id="svg240"
   sodipodi:docname="4k hd.svg"
   inkscape:version="1.1.2 (0a00cf5339, 2022-02-04)"
   xmlns:inkscape="http://www.inkscape.org/namespaces/inkscape"
   xmlns:sodipodi="http://sodipodi.sourceforge.net/DTD/sodipodi-0.dtd"
   xmlns="http://www.w3.org/2000/svg"
   xmlns:svg="http://www.w3.org/2000/svg">
  <defs
     id="defs244" />
  <sodipodi:namedview
     id="namedview242"
     pagecolor="#ffffff"
     bordercolor="#666666"
     borderopacity="1.0"
     inkscape:pageshadow="2"
     inkscape:pageopacity="0.0"
     inkscape:pagecheckerboard="0"
     showgrid="false"
     inkscape:zoom="0.665"
     inkscape:cx="108.27068"
     inkscape:cy="321.80451"
     inkscape:window-width="1366"
     inkscape:window-height="714"
     inkscape:window-x="0"
     inkscape:window-y="22"
     inkscape:window-maximized="1"
     inkscape:current-layer="svg240" />
  <path
     d="M 0.40247454,1.4450556 H 1.0975259"
     stroke="#000000"
     stroke-width="0.109898"
     stroke-linecap="round"
     stroke-linejoin="round"
     id="path232" />
  <path
     d="m 0.85425787,0.36386177 v 0.3089126 m 0,0.1544562 v -0.1544562 m 0,0 0.0952633,-0.12096792 M 1.0975259,0.36386177 0.94952165,0.55180645 m 0,0 0.14800425,0.27542412"
     stroke="#000000"
     stroke-width="0.109898"
     stroke-linecap="round"
     stroke-linejoin="round"
     id="path234" />
  <path
     d="M 0.57623732,0.36386177 0.36772199,0.71138838 h 0.24326798 v 0.11584219"
     stroke="#000000"
     stroke-width="0.109898"
     stroke-linecap="round"
     stroke-linejoin="round"
     id="path236" />
  <path
     d="M 0.05494889,1.0898063 V 0.10128622 c 0,-0.02559111 0.01867109,-0.04633733 0.04170318,-0.04633733 H 1.4033484 c 0.023034,0 0.041703,0.02074622 0.041703,0.04633733 V 1.0898063 c 0,0.025593 -0.018669,0.046337 -0.041703,0.046337 H 0.09665197 c -0.02303209,0 -0.04170318,-0.020744 -0.04170308,-0.046337 z"
     stroke="#000000"
     stroke-width="0.109898"
     id="path238" />
  <path
     style="fill:#ff9955;stroke-width:0.00330517"
     d="m 0.38627408,1.498308 c -0.0182731,-0.00771 -0.034491,-0.032756 -0.034491,-0.053253 0,-0.014987 0.0104935,-0.036226 0.0226621,-0.045869 l 0.0102619,-0.00813 H 0.750001 1.1152949 l 0.010262,0.00813 c 0.012168,0.00965 0.022662,0.030884 0.022662,0.045869 0,0.014987 -0.010493,0.036226 -0.022662,0.04587 l -0.010262,0.00813 -0.36215839,6.185e-4 C 0.5539495,1.5000178 0.38886171,1.4994022 0.38627489,1.4983073 Z"
     id="path1216" />
  <path
     style="fill:#5555ff;stroke:#5555ff;stroke-width:0.00330517"
     d="m 0.58999192,0.87629657 c -0.007679,-0.004309 -0.0171513,-0.013166 -0.0210451,-0.0196774 -0.006256,-0.0104673 -0.007078,-0.0162152 -0.007078,-0.0496468 v -0.0378082 l -0.0964182,-1.855e-5 c -0.0594931,-1.171e-5 -0.10122221,-0.001471 -0.10896103,-0.003803 -0.0252187,-0.007607 -0.042454,-0.0367506 -0.0378515,-0.0640092 0.003278,-0.0194451 0.21717037,-0.37472648 0.23153019,-0.38458757 0.0149908,-0.0102958 0.0385171,-0.0101272 0.0527841,3.7685e-4 0.005915,0.004356 0.0140023,0.015344 0.0181748,0.0246937 0.006456,0.0144568 0.007088,0.0189092 0.004501,0.0313512 -0.002025,0.009734 -0.0289751,0.0577198 -0.0819898,0.14598668 -0.0434356,0.0723172 -0.0789742,0.13228499 -0.0789742,0.13326211 0,9.7423e-4 0.0335206,0.001771 0.0744908,0.001771 0.0409693,0 0.0793281,0.001537 0.085241,0.003428 0.0142129,0.004524 0.0308448,0.0228576 0.0346875,0.0382279 0.00401,0.0160391 0.00401,0.13059734 0,0.14663612 -0.005333,0.0213317 -0.0298633,0.0416536 -0.0502808,0.0416536 -0.002667,0 -0.0111281,-0.003522 -0.0188084,-0.007841 z"
     id="path1331" />
  <path
     style="fill:#ff5555;fill-opacity:1;stroke:#ff5555;stroke-width:0.00330517;stroke-opacity:1"
     d="M 0.83311804,0.87651408 C 0.825369,0.87208278 0.81584744,0.86312978 0.81195262,0.8566194 l -0.00708,-0.0118381 V 0.59758988 c 0,-0.27296356 -7.512e-4,-0.26237912 0.0197789,-0.27862219 0.01468,-0.0116148 0.0414124,-0.0126592 0.0551862,-0.002155 0.0237589,0.018114 0.0236977,0.017831 0.0247435,0.1148885 5.1389e-4,0.047898 0.002075,0.0865896 0.003459,0.0859815 0.001383,-6.072e-4 0.0377271,-0.0457874 0.0807617,-0.10040089 0.0430345,-0.0546136 0.082111,-0.1012554 0.0868389,-0.10364804 0.022466,-0.0113731 0.051714,-0.00164 0.064581,0.0214946 0.00837,0.0150451 0.00859,0.0417154 4.745e-4,0.056028 -0.00326,0.005752 -0.033585,0.0454296 -0.067386,0.0881801 -0.060805,0.0769045 -0.061411,0.0778281 -0.057096,0.0870991 0.0024,0.005152 0.032726,0.0618921 0.067396,0.12608418 0.059989,0.11107535 0.063035,0.11757181 0.063036,0.13448879 2e-6,0.0229626 -0.00919,0.0387365 -0.028919,0.0496131 -0.018612,0.0102621 -0.035811,0.007972 -0.050948,-0.006801 -0.00593,-0.005789 -0.034848,-0.0557002 -0.0675724,-0.11665156 l -0.0571922,-0.10652584 -0.018254,0.0220662 -0.018255,0.0220662 -1.4496e-4,0.0729345 c -1.3173e-4,0.0654715 -7.8478e-4,0.0743837 -0.006376,0.0870991 -0.012674,0.0288407 -0.0410355,0.0399094 -0.0658681,0.0257054 z"
     id="path4303" />
</svg>
