<?xml version="1.0" encoding="UTF-8" standalone="no"?>
<!-- Uploaded to: SVG Repo, www.svgrepo.com, Generator: SVG Repo Mixer Tools -->

<svg
   fill="#000000"
   width="50"
   height="50"
   viewBox="0 0 6 6"
   version="1.1"
   id="svg328"
   sodipodi:docname="anime.svg"
   inkscape:version="1.1.2 (0a00cf5339, 2022-02-04)"
   xmlns:inkscape="http://www.inkscape.org/namespaces/inkscape"
   xmlns:sodipodi="http://sodipodi.sourceforge.net/DTD/sodipodi-0.dtd"
   xmlns="http://www.w3.org/2000/svg"
   xmlns:svg="http://www.w3.org/2000/svg">
  <defs
     id="defs332" />
  <sodipodi:namedview
     id="namedview330"
     pagecolor="#ffffff"
     bordercolor="#666666"
     borderopacity="1.0"
     inkscape:pageshadow="2"
     inkscape:pageopacity="0.0"
     inkscape:pagecheckerboard="0"
     showgrid="false"
     inkscape:zoom="0.705"
     inkscape:cx="400"
     inkscape:cy="297.87234"
     inkscape:window-width="1366"
     inkscape:window-height="714"
     inkscape:window-x="0"
     inkscape:window-y="22"
     inkscape:window-maximized="1"
     inkscape:current-layer="svg328" />
  <path
     d="M 2.4625022,0.20027507 C 1.7070763,0.61770307 0.95209399,1.7279081 0.94886161,2.4261671 c -5.7042e-4,0.112848 -0.154457,0.694771 -0.86133386,3.256548 L 0,6.0000001 1.7575901,5.9733451 c 1.9705468,-0.02981 2.0679618,-0.05539 2.5989593,-0.683976 1.1933815,-1.412461 0.2164426,-4.208153 -1.3196979,-3.776527 -1.2682333,0.356395 -1.3401062,2.85905 -0.087401,3.043974 0.7987779,0.117995 1.1530085,-0.94845 0.5518495,-1.66124 -0.1166826,-0.13834 -0.129105,-0.13452 -0.2930057,0.0896 -0.1710625,0.233915 -0.1710625,0.234164 -0.043098,0.385873 0.2866042,0.339788 0.073457,0.739528 -0.2813438,0.527701 C 2.4841781,3.6601841 2.4101503,2.8938351 2.7444797,2.4558141 3.592884,1.3442801 4.9089692,3.1735871 4.2218669,4.5094041 3.1634847,6.5669801 0.72874295,4.4031171 1.5413376,2.1270711 2.0954687,0.57494107 3.5418632,0.18159507 4.7198434,1.2626551 L 5.081236,1.5943881 5.5499309,1.1322031 C 6.0666045,0.62268807 6.0716749,0.61089607 5.8958588,0.33023107 5.7628876,0.11790507 5.7855777,0.10968507 5.3293686,0.53566507 l -0.2521256,0.23541 -0.5490607,-0.356478 c -0.715243,-0.464347 -1.4712393,-0.542817 -2.0656801,-0.214322 M 1.0116078,4.1848091 c 0,0.03081 -0.0700349,0.299681 -0.15559786,0.597535 L 0.70041211,5.3239951 H 1.6675271 L 1.5362672,5.1371621 C 1.4641408,5.0344451 1.3165288,4.7654881 1.2083392,4.5396271 1.1001496,4.3137661 1.0116078,4.1540861 1.0116078,4.1848091"
     fill-rule="evenodd"
     id="path326"
     style="stroke-width:0.0725459" />
  <path
     style="fill:#ff7f2a;stroke-width:0.0123482"
     d="m 0.0475112,5.8504861 c 0.35620921,-1.282898 0.73326456,-2.673268 0.82809919,-3.053568 0.0541058,-0.216972 0.0741375,-0.319797 0.0822369,-0.422128 0.0324944,-0.410556 0.25550621,-0.895557 0.63292511,-1.37647403 0.1686715,-0.214926 0.2779259,-0.331132 0.4643308,-0.493876 0.3951781,-0.345019 0.7596718,-0.494818 1.2039972,-0.494818 0.2485948,0 0.4891234,0.0478 0.756514,0.150334 0.1946203,0.07463 0.3339078,0.151626 0.711772,0.393454 0.1894768,0.121263 0.3510251,0.217199 0.3589963,0.213192 0.00797,-0.004 0.1132697,-0.09925 0.2339966,-0.211659 0.3717709,-0.346142 0.4144187,-0.377797 0.4690501,-0.34815 0.055649,0.0302 0.2058406,0.294115 0.2061418,0.362231 2.218e-4,0.05033 -0.060646,0.152661 -0.1479794,0.24877 -0.074122,0.08157 -0.7205,0.72497403 -0.7555521,0.75207603 -0.00857,0.0066 -0.096858,-0.06531 -0.2373377,-0.193378 C 4.5266993,1.0774731 4.360531,0.95638207 4.1137727,0.83656007 3.7153063,0.64307107 3.2758608,0.59566207 2.8887338,0.70439807 2.2923962,0.87189907 1.818851,1.3618291 1.5520656,2.0873161 c -0.1395143,0.37939 -0.1915489,0.718611 -0.1723617,1.123651 0.022265,0.470024 0.1842741,0.953798 0.4482732,1.33859 0.2624284,0.382502 0.6138994,0.652155 0.9852402,0.755889 0.071308,0.01992 0.1372779,0.02538 0.2966722,0.02455 0.1858138,-9.66e-4 0.21485,-0.0045 0.3106315,-0.03821 0.33943,-0.119337 0.6311761,-0.411666 0.8353626,-0.83703 0.196393,-0.409129 0.2141819,-0.960987 0.046123,-1.430844 -0.1277562,-0.357178 -0.3642316,-0.673662 -0.6096633,-0.815935 -0.2282628,-0.132321 -0.4978674,-0.131696 -0.6990654,0.0016 -0.2058758,0.136416 -0.3478137,0.335631 -0.4203404,0.589963 -0.027877,0.09776 -0.033384,0.139511 -0.037485,0.2842 -0.00355,0.125174 -2.346e-4,0.195155 0.012635,0.267125 0.063219,0.353451 0.2777917,0.604573 0.5194735,0.60796 0.078913,0.0011 0.092028,-0.0028 0.1391046,-0.04118 0.067235,-0.05485 0.092085,-0.116021 0.091779,-0.225923 -3.296e-4,-0.119167 -0.027989,-0.188582 -0.1293359,-0.324616 -0.062604,-0.08403 -0.086189,-0.125658 -0.086189,-0.152126 0,-0.06428 0.2539672,-0.406852 0.3016223,-0.406852 0.026963,0 0.092757,0.06683 0.169172,0.17184 0.3009435,0.413552 0.3232288,0.956071 0.053637,1.305737 -0.3594572,0.46622 -1.0716467,0.313438 -1.374775,-0.294923 -0.302688,-0.607478 -0.2126037,-1.510909 0.2041071,-2.046936 0.2364822,-0.304194 0.5504424,-0.464411 0.9097483,-0.464254 0.3681749,1.61e-4 0.6984421,0.175187 0.9756178,0.517032 0.3328975,0.410569 0.5329227,0.989478 0.5587553,1.617141 0.015496,0.376499 -0.059733,0.802461 -0.1984459,1.12365 -0.105591,0.244496 -0.2296334,0.433056 -0.4442803,0.675365 -0.3739489,0.422139 -0.5944692,0.495175 -1.6082584,0.532652 -0.4015046,0.01484 -1.96244321,0.04287 -2.38639704,0.04285 l -0.23417491,-1.1e-5 z M 1.6526297,5.2921941 C 1.6414125,5.2747041 1.605221,5.2222341 1.572204,5.1755891 1.4885678,5.0574381 1.4006041,4.9023291 1.2676155,4.6384981 1.0970164,4.3000521 1.0312852,4.1791141 1.0180999,4.1794151 c -0.00654,1.5e-4 -0.02811,0.06852 -0.047939,0.151941 -0.0198293,0.08342 -0.0890078,0.337191 -0.15373022,0.563941 -0.0647224,0.22675 -0.11767703,0.415969 -0.11767703,0.420485 0,0.0045 0.21921099,0.0082 0.48713565,0.0082 H 1.673025 Z"
     id="path5285" />
</svg>
