<?xml version="1.0" encoding="UTF-8" standalone="no"?>
<!-- Uploaded to: SVG Repo, www.svgrepo.com, Generator: SVG Repo Mixer Tools -->

<svg
   width="50.006298"
   height="49.999996"
   viewBox="0 0 4.0005038 3.9999997"
   stroke-width="3"
   stroke="#000000"
   fill="none"
   version="1.1"
   id="svg342"
   sodipodi:docname="couple.svg"
   inkscape:version="1.1.2 (0a00cf5339, 2022-02-04)"
   xmlns:inkscape="http://www.inkscape.org/namespaces/inkscape"
   xmlns:sodipodi="http://sodipodi.sourceforge.net/DTD/sodipodi-0.dtd"
   xmlns="http://www.w3.org/2000/svg"
   xmlns:svg="http://www.w3.org/2000/svg">
  <defs
     id="defs346" />
  <sodipodi:namedview
     id="namedview344"
     pagecolor="#ffffff"
     bordercolor="#666666"
     borderopacity="1.0"
     inkscape:pageshadow="2"
     inkscape:pageopacity="0.0"
     inkscape:pagecheckerboard="0"
     showgrid="false"
     inkscape:zoom="0.705"
     inkscape:cx="75.177305"
     inkscape:cy="331.91489"
     inkscape:window-width="1366"
     inkscape:window-height="714"
     inkscape:window-x="0"
     inkscape:window-y="22"
     inkscape:window-maximized="1"
     inkscape:current-layer="svg342" />
  <ellipse
     cx="0.91613734"
     cy="0.56415063"
     stroke-linecap="round"
     id="circle334"
     rx="0.4746339"
     ry="0.44480014"
     style="stroke-width:0.233236" />
  <path
     d="M 0.3925148,3.7966661 V 2.8483612 A 0.17587958,0.16482441 0 0 0 0.3330851,2.7249311 L 0.1580086,2.5744064 A 0.08512893,0.07977803 0 0 1 0.1282939,2.5126914 V 1.5342815 A 0.17748578,0.16632967 0 0 1 0.3049765,1.3687044 H 1.4365487 A 0.26582712,0.24911818 0 0 1 1.7015728,1.6178227 V 2.5209703 A 0.08432582,0.0790254 0 0 1 1.6774797,2.577417 L 1.5080249,2.7475097 a 0.17507647,0.1640718 0 0 0 -0.048186,0.113646 v 0.9355104"
     stroke-linecap="round"
     id="path336"
     style="stroke-width:0.233236" />
  <path
     d="M 2.4805827,3.8802072 V 3.052322 A 0.09235686,0.08655164 0 0 0 2.3882264,2.9657707 H 2.1633569 A 0.09315996,0.08730426 0 0 1 2.0790313,2.8461033 L 2.6106854,1.4913821 a 0.09315996,0.08730426 0 0 1 0.086736,-0.057199 h 0.5621733 a 0.09315996,0.08730426 0 0 1 0.08754,0.057952 l 0.519606,1.3547212 a 0.09315996,0.08730426 0 0 1 -0.08754,0.1166566 h -0.240931 a 0.09315996,0.08730426 0 0 0 -0.09397,0.088809 v 0.8278852"
     stroke-linecap="round"
     id="path338"
     style="stroke-width:0.233236" />
  <ellipse
     cx="2.9704759"
     cy="0.56415063"
     stroke-linecap="round"
     id="circle340"
     rx="0.4746339"
     ry="0.44480014"
     style="stroke-width:0.233236" />
  <path
     style="fill:#ff7f2a;stroke-width:0.0264665"
     d="M 0.343979,3.8912448 C 0.2741144,3.861507 0.276309,3.880032 0.276412,3.3211215 L 0.2765024,2.8270689 0.1546608,2.7160437 C 0.050367,2.6210083 0.0312647,2.5994835 0.0220255,2.5665866 0.0141204,2.5384403 0.0119492,2.3864423 0.0139129,1.9986499 l 0.00268,-0.529505 0.021438,-0.044426 C 0.0651269,1.3685719 0.1392308,1.302192 0.1988853,1.280633 0.2422923,1.264946 0.2743013,1.264175 0.8823506,1.264175 h 0.6379259 l 0.050123,0.019156 c 0.1096285,0.041895 0.1946829,0.1285851 0.2284851,0.2328762 0.017362,0.053567 0.018026,0.077457 0.015576,0.5595735 -0.0023,0.4527829 -0.0041,0.5062033 -0.017857,0.5292384 -0.00841,0.014092 -0.060701,0.071292 -0.1161937,0.127111 l -0.1008968,0.1014895 -5.77e-5,0.4792576 c -2.59e-5,0.3005505 -0.00353,0.4909951 -0.00938,0.510735 -0.010745,0.036255 -0.050677,0.071287 -0.090635,0.07951 -0.037111,0.00764 -0.089653,-0.017178 -0.1165869,-0.055067 l -0.020958,-0.029482 0.00261,-0.5128329 0.00261,-0.512833 0.022042,-0.04163 c 0.012132,-0.022897 0.066469,-0.086985 0.120759,-0.1424193 L 1.5886227,2.50807 V 2.0523349 c 0,-0.4556499 -3.8e-6,-0.4557419 -0.020505,-0.4937722 -0.025771,-0.047805 -0.06725,-0.073982 -0.128045,-0.080802 -0.026062,-0.00292 -0.2984237,-0.00414 -0.6052492,-0.0027 -0.5211676,0.00245 -0.558935,0.00362 -0.5741334,0.017866 -0.015179,0.014225 -0.01644,0.048309 -0.018829,0.5093065 l -0.00256,0.4940612 0.1036582,0.090695 c 0.065872,0.057634 0.1133135,0.1070265 0.1301449,0.1354938 l 0.026487,0.044798 0.00254,0.534448 0.00254,0.5344481 -0.020017,0.023848 c -0.019199,0.022874 -0.067315,0.047606 -0.091848,0.047211 -0.00642,-1.037e-4 -0.028399,-0.00731 -0.048828,-0.015997 z"
     id="path1064" />
  <path
     style="fill:#ff7f2a;stroke-width:0.0264665"
     d="M 0.779143,1.10226 C 0.6851783,1.0809496 0.5799836,1.0240519 0.5040751,0.95348079 0.3851317,0.84290099 0.3293436,0.71887179 0.3293436,0.56501449 c 0,-0.093505 0.018133,-0.1657928 0.063488,-0.2530939 0.0442429,-0.085161 0.1520015,-0.1876024 0.2452804,-0.2331754 0.2570524,-0.1255875 0.5579706,-0.0670351 0.738028,0.1436049 0.2002549,0.2342686 0.1623748,0.570532 -0.086387,0.7668583 C 1.2271781,1.0385937 1.1312272,1.0836504 1.0508077,1.1014128 0.9799688,1.1170594 0.8462383,1.1174765 0.779143,1.10226 Z M 1.0643718,0.86840699 C 1.1415302,0.83457019 1.1995347,0.78298839 1.2338197,0.71772329 1.342375,0.51107649 1.2167249,0.27579459 0.975574,0.23415379 0.8199074,0.20727409 0.6612895,0.28524629 0.5915163,0.42294569 c -0.025605,0.050532 -0.028128,0.063175 -0.028128,0.1409166 0,0.077849 0.0025,0.090315 0.028227,0.1409167 0.085819,0.1687745 0.2955188,0.2413545 0.4727565,0.163628 z"
     id="path1103" />
  <path
     style="fill:#5555ff;fill-opacity:1;stroke-width:0.0264665"
     d="M 2.8371376,1.1026277 C 2.6251128,1.0531278 2.451733,0.89255189 2.398345,0.69623859 c -0.019475,-0.071613 -0.019475,-0.1931403 0,-0.2647525 0.054274,-0.1995713 0.2328581,-0.3611075 0.4490483,-0.406182 0.091194,-0.019013 0.2203714,-0.013269 0.3041514,0.013525 0.156224,0.049963 0.272959,0.1461676 0.34692,0.285901 0.08304,0.1569022 0.08303,0.3214751 -3.9e-5,0.4782624 C 3.3930327,1.0019095 3.1978997,1.1155707 2.9647227,1.1138646 2.9196127,1.1135347 2.8621977,1.1084746 2.8371362,1.1026276 Z M 3.1297977,0.86312869 c 0.0761,-0.035248 0.130321,-0.086795 0.166556,-0.1583497 0.02116,-0.041785 0.02379,-0.057344 0.02379,-0.1409167 0,-0.084119 -0.0026,-0.099067 -0.0245,-0.1429302 -0.01347,-0.026943 -0.04472,-0.067937 -0.06944,-0.0911 -0.177603,-0.1664397 -0.4719672,-0.1200569 -0.5787528,0.091195 -0.026612,0.052646 -0.029032,0.06455 -0.029032,0.1428361 0,0.078224 0.00243,0.090215 0.028929,0.1426308 0.087352,0.1727984 0.2991118,0.2415499 0.4824478,0.1566351 z"
     id="path2370" />
  <path
     style="fill:#5555ff;fill-opacity:1;stroke-width:0.0264665"
     d="M 2.4584066,3.9841044 C 2.4180428,3.9737193 2.3957832,3.9589778 2.381571,3.9332215 2.3698435,3.9119683 2.3678069,3.8463044 2.3678069,3.4893738 V 3.07047 L 2.2424997,3.0702831 C 2.0974878,3.0700658 2.06537,3.0608921 2.0107188,3.0040871 1.9752948,2.9672662 1.9578468,2.9241297 1.9577618,2.8731663 1.9576904,2.8300197 2.5041337,1.4397086 2.5370673,1.3992444 c 0.014122,-0.017352 0.045338,-0.039221 0.072798,-0.051002 l 0.048074,-0.020626 0.3311014,0.00244 c 0.314451,0.00232 0.332908,0.00333 0.367066,0.020124 0.07251,0.035647 0.07342,0.037618 0.352887,0.765531 0.144802,0.3771549 0.267704,0.7019215 0.273116,0.7217034 0.02157,0.078832 -0.02741,0.1712439 -0.111575,0.2105509 -0.0453,0.021159 -0.05599,0.022504 -0.178542,0.022504 h -0.130353 l -3.9e-5,0.4163446 c -3.8e-5,0.397616 -8.32e-4,0.4175723 -0.01779,0.4436368 -0.04792,0.073658 -0.148714,0.076189 -0.198486,0.00499 -0.01484,-0.021239 -0.01608,-0.05759 -0.01608,-0.4760063 V 3.0064176 l 0.02128,-0.037375 c 0.02625,-0.04611 0.05873,-0.075434 0.106307,-0.095971 0.02972,-0.012831 0.05959,-0.015771 0.16176,-0.015923 0.06892,-1.036e-4 0.125243,-0.00307 0.125165,-0.00659 -8e-5,-0.00352 -0.112247,-0.2984872 -0.249266,-0.655476 L 3.2453747,1.5460087 H 2.9787397 2.7121053 L 2.4622109,2.1822685 C 2.324769,2.5322116 2.2099485,2.8271756 2.2070545,2.8377444 c -0.00524,0.019143 -0.00484,0.019216 0.1053775,0.019216 0.1190211,0 0.1513404,0.00751 0.2086315,0.048458 0.017276,0.012349 0.040995,0.042337 0.053127,0.067172 l 0.021916,0.044864 -0.00251,0.4533693 -0.00251,0.453369 -0.027561,0.025824 c -0.031768,0.029766 -0.071647,0.042698 -0.1051127,0.034088 z"
     id="path2409" />
</svg>
