<?xml version="1.0" encoding="UTF-8" standalone="no"?>
<svg
   width="48.912838"
   height="50.000755"
   viewBox="0 0 48.912838 50.000755"
   fill="none"
   stroke="currentColor"
   stroke-width="2"
   stroke-linecap="round"
   stroke-linejoin="round"
   class="feather feather-download-cloud"
   version="1.1"
   id="svg354"
   sodipodi:docname="download.svg"
   inkscape:version="1.1.2 (0a00cf5339, 2022-02-04)"
   xmlns:inkscape="http://www.inkscape.org/namespaces/inkscape"
   xmlns:sodipodi="http://sodipodi.sourceforge.net/DTD/sodipodi-0.dtd"
   xmlns="http://www.w3.org/2000/svg"
   xmlns:svg="http://www.w3.org/2000/svg">
  <defs
     id="defs358" />
  <sodipodi:namedview
     id="namedview356"
     pagecolor="#ffffff"
     bordercolor="#666666"
     borderopacity="1.0"
     inkscape:pageshadow="2"
     inkscape:pageopacity="0.0"
     inkscape:pagecheckerboard="0"
     showgrid="false"
     inkscape:zoom="4.1542523"
     inkscape:cx="-32.978257"
     inkscape:cy="38.274035"
     inkscape:window-width="1366"
     inkscape:window-height="714"
     inkscape:window-x="0"
     inkscape:window-y="22"
     inkscape:window-maximized="1"
     inkscape:current-layer="svg354" />
  <polyline
     points="8 17 12 21 16 17"
     id="polyline348"
     transform="matrix(2.0134854,0,0,2.4959614,0.33031335,-4.9429716)" />
  <line
     x1="24.492136"
     y1="25.008564"
     x2="24.492136"
     y2="47.472218"
     id="line350"
     style="stroke-width:4.48356" />
  <path
     d="M 42.371889,40.208968 A 10.067427,12.479807 0 0 0 36.57305,17.520681 H 34.036059 A 16.107883,19.967691 0 1 0 6.3707695,35.716238"
     id="path352"
     style="stroke-width:4.48356" />
  <path
     style="fill:#ff5555;fill-opacity:1;stroke-width:0.19079"
     d="m 23.721015,49.713404 c -0.458524,-0.26357 -8.848362,-10.676514 -9.058436,-11.242765 -0.195167,-0.526069 -0.190807,-1.45076 0.0094,-1.997201 0.287033,-0.78336 1.084296,-1.427921 1.766201,-1.427921 0.715173,0 0.830425,0.111768 3.488544,3.383242 l 2.546061,3.133558 0.02435,-8.542403 0.02433,-8.542405 0.199465,-0.502026 c 0.350543,-0.882294 0.982598,-1.371842 1.771193,-1.371842 0.788597,0 1.420652,0.489548 1.771189,1.371842 l 0.199465,0.502026 0.02433,8.542405 0.02433,8.542403 2.546062,-3.133558 c 2.658124,-3.271471 2.773377,-3.383242 3.488549,-3.383242 0.681904,0 1.479169,0.644561 1.7662,1.427921 0.200231,0.546506 0.20461,1.471307 0.0095,1.996439 -0.210877,0.56733 -8.60152,10.982694 -9.058437,11.244304 -0.438989,0.251343 -1.104223,0.251008 -1.542247,-7.44e-4 z"
     id="path4473" />
  <path
     style="fill:#4444ff;fill-opacity:1;stroke-width:0.19079"
     d="m 41.970905,42.595684 c -0.926657,-0.287884 -1.535292,-1.239207 -1.534781,-2.398931 3.41e-4,-0.873035 0.234245,-1.388019 0.956235,-2.105713 1.195632,-1.188514 1.94431,-2.329518 2.508952,-3.823702 0.563447,-1.491018 0.722373,-2.429756 0.722373,-4.266851 0,-1.33031 -0.03254,-1.742118 -0.197165,-2.495962 -0.784002,-3.58989 -2.962279,-6.286884 -5.840029,-7.230726 -0.62898,-0.206292 -1.026034,-0.24745 -2.913085,-0.301897 -2.336989,-0.06744 -2.464014,-0.09657 -2.985528,-0.684609 C 32.406261,18.96975 32.297151,18.676647 31.905103,17.184515 31.47841,15.56053 30.709077,13.642554 29.95239,12.316336 29.232558,11.054717 27.639376,9.0724576 26.648798,8.2059666 25.117046,6.8660907 23.152112,5.8154642 21.193449,5.2890552 20.408337,5.0780492 20.053838,5.0475485 18.408842,5.0494737 16.33156,5.0519042 15.660455,5.1738292 13.99631,5.851132 9.7600616,7.5752744 6.4317005,11.703882 5.0121182,16.995413 c -0.435604,1.623726 -0.615293,2.932944 -0.6697656,4.879924 -0.1246142,4.454033 0.9512185,8.370939 3.2685325,11.900111 0.7723981,1.17633 0.9057535,1.914368 0.5277357,2.92068 C 7.7698692,37.677772 7.09926,38.174071 6.2338954,38.105765 5.3400362,38.035208 4.7402008,37.350359 3.4140006,34.886199 1.9923188,32.244628 1.0966348,29.474501 0.62046639,26.246488 0.39971892,24.750013 0.31805826,21.859435 0.45177459,20.275236 0.95237661,14.344364 3.3352147,8.8528986 7.013371,5.1534399 c 2.1571995,-2.169692 4.777134,-3.762588 7.428393,-4.51639403 1.761543,-0.5008416 4.286149,-0.6806257 5.982811,-0.4260526 C 27.081391,1.2098061 32.629236,6.4229228 35.172201,14.068819 l 0.317923,0.9559 1.312585,0.06986 c 3.341424,0.177852 5.985449,1.583756 8.256304,4.390117 1.402396,1.733104 2.356578,3.635615 2.947338,5.876601 1.544401,5.858518 0.01392,12.305102 -3.848986,16.213164 -0.898507,0.908994 -1.557286,1.216686 -2.18646,1.021219 z"
     id="path4588" />
</svg>
