<?xml version="1.0" encoding="UTF-8" standalone="no"?>
<svg
   fill="none"
   viewBox="0 0 49.249321 50.059193"
   id="Changin-Room-Family--Streamline-Guidance---Free.svg"
   height="50.059193"
   width="49.249321"
   version="1.1"
   sodipodi:docname="family.svg"
   inkscape:version="1.1.2 (0a00cf5339, 2022-02-04)"
   xmlns:inkscape="http://www.inkscape.org/namespaces/inkscape"
   xmlns:sodipodi="http://sodipodi.sourceforge.net/DTD/sodipodi-0.dtd"
   xmlns="http://www.w3.org/2000/svg"
   xmlns:svg="http://www.w3.org/2000/svg">
  <defs
     id="defs367" />
  <sodipodi:namedview
     id="namedview365"
     pagecolor="#ffffff"
     bordercolor="#666666"
     borderopacity="1.0"
     inkscape:pageshadow="2"
     inkscape:pageopacity="0.0"
     inkscape:pagecheckerboard="0"
     showgrid="false"
     inkscape:zoom="2.0771262"
     inkscape:cx="89.546799"
     inkscape:cy="-29.848933"
     inkscape:window-width="1366"
     inkscape:window-height="714"
     inkscape:window-x="0"
     inkscape:window-y="22"
     inkscape:window-maximized="1"
     inkscape:current-layer="Changin-Room-Family--Streamline-Guidance---Free.svg" />
  <desc
     id="desc360">Changin Room Family Streamline Icon: https://streamlinehq.com</desc>
  <path
     stroke="#000000"
     d="M 5.5977626,50 V 36.47835 c 0,-2.29781 -2.0028045,-4.160541 -4.4736913,-4.160324 v -16.64173 c 0,0 3.3553266,-2.080271 8.9476157,-2.080271 1.698748,-0.0026 3.390974,0.197389 5.035203,0.594982 M 21.25836,50 V 38.558621 h -7.831346 v -0.520014 l 0.160996,-0.312008 c 3.575972,-6.984431 5.431525,-14.622561 5.431292,-22.358194 v -0.684468 c 2.149358,-0.731919 4.421968,-1.100263 6.710653,-1.087912 2.881187,0 5.169641,0.553381 6.710887,1.087912 v 0.684468 c 0,1.671192 0.08644,3.341519 0.259319,5.004912 M 44.184603,50 v -7.127001 c 0,-2.383829 1.753735,-4.314378 3.914508,-4.314378 V 25.114106 c 0,0 -2.937106,-2.157189 -7.829251,-2.157189 -4.894244,0 -7.829018,2.157189 -7.829018,2.157189 v 13.444515 c 2.163104,0 3.914508,1.9325 3.914508,4.314378 V 50 M 9.736177,9.4354837 c 0,0 -3.5792321,-2.0802705 -3.5792321,-4.6805544 0,-2.7989724 3.258635,-4.548601 5.8653561,-3.1488981 1.209698,0.6495835 1.955041,1.8499478 1.955041,3.1488981 0,2.6002839 -3.570146,4.6805544 -3.570146,4.6805544 z m 15.65827,0 c 0,0 -3.579001,-2.0802705 -3.579001,-4.6805544 0,-2.7989724 3.258402,-4.548601 5.865124,-3.1488981 1.20993,0.6495835 1.955039,1.8499478 1.955039,3.1488981 0,2.6002839 -3.570145,4.6805544 -3.570145,4.6805544 z m 14.591394,9.3611093 c 0,0 -3.071308,-1.820264 -3.071308,-4.095973 0,-1.757862 1.503269,-3.184865 3.359986,-3.184865 1.856718,0 3.3509,1.427003 3.3509,3.184865 0,2.275709 -3.06455,4.095973 -3.06455,4.095973 z"
     stroke-width="2.24684"
     id="path362" />
  <path
     style="fill:#ff7f2a;stroke-width:0.0956103"
     d="M 4.4625733,42.823999 4.4354219,35.701474 4.2104482,35.247814 C 3.8453148,34.51152 3.3601576,34.03703 2.6312373,33.703318 2.0523589,33.4383 1.8541659,33.397283 0.99792435,33.3653 L 0.02343407,33.3289 V 24.223982 15.119063 L 0.40324388,14.885322 C 1.9585774,13.928148 4.5880082,13.100918 7.2108716,12.743614 c 1.405792,-0.191507 4.2008974,-0.196116 5.6129544,-0.0093 1.379298,0.182525 2.46806,0.416165 2.46806,0.529625 0,0.04997 -0.119332,0.504703 -0.265181,1.010506 -0.200465,0.695207 -0.299526,0.907383 -0.405915,0.869418 -0.455635,-0.162564 -2.551929,-0.43117 -3.740892,-0.479302 -2.8425418,-0.115074 -6.1833408,0.45912 -8.204314,1.4101 l -0.4709426,0.221605 v 7.5516 7.551602 l 0.322224,0.06225 c 0.1772229,0.03423 0.6568409,0.209716 1.0658172,0.389953 0.908335,0.400295 1.9828177,1.361404 2.4485248,2.190169 0.6375471,1.134565 0.6249946,0.957924 0.6249946,8.795449 v 7.10922 H 5.5779635 4.489725 Z"
     id="path875" />
  <path
     style="fill:#ff7f2a;stroke-width:0.0956103"
     d="M 8.5449066,9.8928372 C 6.4035403,8.3982896 5.2099714,6.7162242 5.1047059,5.0446524 5.0135092,3.5964916 5.4579414,2.4755398 6.5100137,1.5001685 7.9146844,0.19790477 9.85641,-0.23918101 11.665061,0.33975818 c 1.963197,0.62840808 3.428533,2.50133292 3.428533,4.38219082 0,1.7572682 -1.436694,3.8315193 -3.659157,5.282968 -0.705042,0.460449 -0.760449,0.479592 -1.388074,0.479592 -0.6495441,0 -0.6591301,-0.0038 -1.5014564,-0.5916718 z M 11.21223,7.4649278 C 12.455804,6.3205011 12.814319,5.7072958 12.811064,4.7302726 12.80771,3.7231832 12.360529,2.9869782 11.451117,2.4913591 10.801662,2.137413 9.6881589,2.0829331 8.9706017,2.3699958 8.2498325,2.658343 7.6147886,3.3149384 7.4037569,3.9900135 7.111391,4.9252712 7.3324252,5.7106495 8.1817636,6.7544248 8.6524947,7.3329186 9.886652,8.3638872 10.108428,8.3638872 c 0.06983,0 0.566539,-0.4045317 1.103802,-0.8989594 z"
     id="path914" />
  <path
     style="fill:#5555ff;fill-opacity:1;stroke-width:0.0956103"
     d="M 24.209941,9.8928372 C 22.735126,8.8635038 21.608303,7.6114094 21.065366,6.3986705 20.698625,5.5794969 20.640739,4.2902316 20.930825,3.4020866 c 0.666846,-2.0416624 2.89019,-3.47146343 5.133994,-3.30160067 2.044344,0.15476293 3.80061,1.44933197 4.455951,3.28454897 0.271184,0.7594159 0.252295,1.9944009 -0.04265,2.7884374 -0.471226,1.2686391 -1.860698,2.8400955 -3.400139,3.8454747 -0.681661,0.445181 -0.741488,0.465562 -1.366588,0.465562 -0.649545,0 -0.659131,-0.0038 -1.501458,-0.5916718 z M 26.878278,7.4649278 C 27.60911,6.7891994 27.931672,6.4117897 28.177242,5.9450852 28.481954,5.3659802 28.500892,5.2752968 28.458696,4.5974022 28.423114,4.0257767 28.356894,3.7808464 28.148527,3.4502047 27.624723,2.619012 26.770712,2.1856609 25.659745,2.1873232 c -1.486318,0.00223 -2.733632,1.185827 -2.733632,2.5940022 0,0.5220712 0.336109,1.2494636 0.898106,1.9436482 0.507586,0.6269735 1.712755,1.6389136 1.951866,1.6389136 0.07147,0 0.567444,-0.4045317 1.102193,-0.8989594 z"
     id="path3655" />
  <path
     style="fill:#5555ff;fill-opacity:1;stroke-width:0.0956103"
     d="M 20.100457,44.783268 V 39.620016 H 16.184199 12.26794 v -0.878539 c 0,-0.790174 0.0295,-0.932887 0.29331,-1.418883 0.838556,-1.544812 2.188061,-4.749976 2.8793,-6.838532 1.536095,-4.641261 2.288214,-9.038219 2.458955,-14.375294 l 0.06932,-2.166722 1.064835,-0.340923 c 2.239593,-0.717038 4.198684,-1.007824 6.774988,-1.005608 2.477149,0.0021 4.680219,0.343086 6.784181,1.04994 l 0.941887,0.316438 0.05934,2.387301 c 0.03264,1.313017 0.09357,2.72307 0.135378,3.133453 l 0.07604,0.74615 -1.075017,0.10111 c -0.591259,0.05561 -1.090837,0.0864 -1.110173,0.06842 -0.06055,-0.0563 -0.195513,-1.779837 -0.268236,-3.425744 l -0.06982,-1.579514 -0.60881,-0.151222 C 27.523079,14.459328 24.17282,14.44395 20.982414,15.197358 l -0.853099,0.20146 -0.05808,1.853241 c -0.116632,3.721851 -0.713434,7.578182 -1.757219,11.354712 -0.693556,2.509367 -2.021866,6.074144 -3.029686,8.13075 -0.186694,0.380979 -0.339447,0.708255 -0.339447,0.72728 0,0.01907 1.673086,0.03458 3.717968,0.03458 h 3.717964 v 6.223566 6.223564 h -1.140173 -1.140175 z"
     id="path3899" />
  <path
     style="fill:#ff5555;fill-opacity:1;stroke-width:0.0956103"
     d="m 38.92309,19.33434 c -2.206915,-1.541602 -3.382229,-3.564185 -3.059366,-5.264833 0.469001,-2.47043 2.994092,-4.050657 5.50198,-3.443192 2.480294,0.600783 3.930854,3.091126 3.12013,5.356698 -0.403681,1.12809 -1.752493,2.66312 -3.094579,3.521818 -0.403488,0.258164 -0.534639,0.291874 -1.132493,0.29109 -0.656648,-8.3e-4 -0.695186,-0.01418 -1.335672,-0.461581 z m 2.227448,-2.330884 c 0.992842,-0.937525 1.303606,-1.492229 1.305681,-2.330609 0.0014,-0.566426 -0.03784,-0.711634 -0.298443,-1.103974 -0.438531,-0.660243 -1.053303,-0.986791 -1.857771,-0.986791 -0.996331,0 -1.638865,0.383367 -2.047536,1.221663 -0.481742,0.98818 -0.105556,2.03893 1.147119,3.203983 0.395299,0.367652 0.790678,0.668457 0.878625,0.668457 0.08795,0 0.480491,-0.302728 0.872325,-0.672729 z"
     id="path3975" />
  <path
     style="fill:#ff5555;fill-opacity:1;stroke-width:0.0956103"
     d="m 35.269764,46.321518 c 0,-2.218737 -0.04188,-3.835572 -0.107887,-4.167797 -0.224169,-1.12771 -1.071764,-2.179184 -1.955013,-2.425276 -0.21405,-0.05963 -0.729762,-0.108423 -1.146042,-0.108423 h -0.756891 v -7.510246 -7.510245 l 0.895387,-0.548553 c 3.758291,-2.302503 9.218397,-2.772382 13.663708,-1.175857 1.147929,0.412277 1.581708,0.619232 2.568342,1.225355 l 0.817952,0.502496 v 7.508526 7.508524 h -0.861009 c -0.669215,0 -0.955835,0.04269 -1.286707,0.191647 -0.570321,0.25675 -1.2604,0.989349 -1.53896,1.633789 -0.222701,0.515203 -0.227877,0.60528 -0.258956,4.513387 l -0.03171,3.987691 h -1.089545 -1.089544 l 0.02947,-4.172094 0.02947,-4.172094 0.260168,-0.661648 c 0.555944,-1.413844 1.612811,-2.510129 2.937283,-3.046828 l 0.619662,-0.251099 v -6.007226 -6.007223 l -0.680116,-0.332356 c -0.90583,-0.442659 -2.524305,-0.932395 -3.674985,-1.112017 -1.217021,-0.189978 -3.457461,-0.189978 -4.674482,0 -1.125734,0.175722 -2.693124,0.645517 -3.652169,1.094655 l -0.702929,0.329194 0.0028,6.014953 0.0028,6.014954 0.777543,0.342146 c 1.412459,0.621528 2.45226,1.862917 2.888243,3.448189 0.179471,0.652585 0.195536,1.031189 0.195536,4.614701 v 3.903793 h -1.090601 -1.090603 z"
     id="path4014" />
</svg>
