<?xml version="1.0" encoding="UTF-8" standalone="no"?>
<svg
   class="ionicon"
   viewBox="0 0 40.947186 49.691441"
   version="1.1"
   id="svg373"
   sodipodi:docname="single.svg"
   inkscape:version="1.1.2 (0a00cf5339, 2022-02-04)"
   width="40.947186"
   height="49.691441"
   xmlns:inkscape="http://www.inkscape.org/namespaces/inkscape"
   xmlns:sodipodi="http://sodipodi.sourceforge.net/DTD/sodipodi-0.dtd"
   xmlns="http://www.w3.org/2000/svg"
   xmlns:svg="http://www.w3.org/2000/svg">
  <defs
     id="defs377" />
  <sodipodi:namedview
     id="namedview375"
     pagecolor="#ffffff"
     bordercolor="#666666"
     borderopacity="1.0"
     inkscape:pageshadow="2"
     inkscape:pageopacity="0.0"
     inkscape:pagecheckerboard="0"
     showgrid="false"
     inkscape:zoom="1.1015625"
     inkscape:cx="208.79433"
     inkscape:cy="-77.163121"
     inkscape:window-width="1366"
     inkscape:window-height="714"
     inkscape:window-x="0"
     inkscape:window-y="22"
     inkscape:window-maximized="1"
     inkscape:current-layer="svg373" />
  <ellipse
     fill="none"
     stroke="currentColor"
     stroke-linejoin="round"
     stroke-width="3.12778"
     cx="20.475607"
     cy="5.4444695"
     id="circle369"
     rx="3.9391017"
     ry="3.8805792" />
  <path
     fill="none"
     stroke="currentColor"
     stroke-linejoin="round"
     stroke-width="3.12778"
     d="m 15.377422,26.636317 c 0.285586,-1.75208 0.413606,-3.44596 -0.04924,-4.61692 -0.39391,-1.00702 -1.250665,-1.57067 -2.284681,-1.95484 l -9.112123,-2.90462 c -1.181729,-0.38806 -2.285663,-1.03805 -2.363461,-2.32253 -0.09848,-1.64924 1.378687,-2.7164 2.855849,-2.32834 0,0 8.666026,3.02103 16.051842,3.02103 7.385816,0 15.953362,-3.00745 15.953362,-3.00745 1.772596,-0.48507 2.954327,0.87314 2.954327,2.30798 0,1.37857 -1.083254,1.86364 -2.363462,2.32252 l -8.666024,3.09574 c -0.78782,0.29104 -2.068028,0.87312 -2.560416,1.76372 -0.590867,1.04291 -0.492387,2.86483 -0.206803,4.61691 l 0.581019,2.87454 3.684044,15.90068 c 0.275736,1.27574 -0.620408,2.46805 -1.910465,2.69118 -1.290055,0.22314 -2.34475,-0.64417 -2.726842,-1.8782 l -3.69882,-11.24688 q -0.266874,-0.80911 -0.472691,-1.63663 l -0.567231,-2.27791 -0.52193,2.10036 q -0.248165,1.0041 -0.57117,1.98686 l -3.633823,11.0645 c -0.393911,1.24663 -1.427923,2.11007 -2.71798,1.8879 -1.290056,-0.22216 -2.205897,-1.51245 -1.916373,-2.69118 l 3.682077,-15.89389 z"
     id="path371" />
  <path
     style="fill:#ff7f2a;stroke-width:0.0887315"
     d="m 12.581619,49.542557 c -1.103516,-0.25583 -2.183561,-1.12923 -2.674508,-2.16278 -0.22468,-0.47299 -0.289968,-0.74032 -0.318361,-1.30357 -0.03366,-0.6678 0.07233,-1.17464 1.842627,-8.81098 2.053202,-8.85671 2.458439,-10.76227 2.611604,-12.28073 0.202716,-2.00965 -0.07062,-2.82113 -1.121513,-3.32956 -0.196675,-0.0951 -2.509849,-0.85636 -5.140388,-1.69156 -2.879441,-0.91425 -5.029258,-1.64538 -5.402109,-1.8372 -2.14140297,-1.10171 -2.89516597,-3.16924 -1.88768997,-5.17781 0.51449797,-1.02574 1.50674997,-1.74337 2.72526997,-1.97103 0.661996,-0.12368 1.183017,-0.0438 2.597772,0.39844 3.898317,1.21852 8.045087,2.11192 11.44295,2.46536 1.768145,0.18392 4.712218,0.18451 6.436662,9.9e-4 3.357543,-0.35673 7.126178,-1.16142 11.08602,-2.36712 1.802483,-0.54882 2.272971,-0.62936 2.937543,-0.50287 1.630088,0.31027 2.870111,1.60112 3.135454,3.26399 0.253231,1.58697 -0.501356,2.98838 -2.028141,3.76664 -0.381198,0.19432 -2.811184,1.10896 -5.399963,2.03254 -2.588778,0.92361 -4.924013,1.78056 -5.189409,1.90434 -1.208085,0.56351 -1.382591,0.9428 -1.294221,2.81296 0.07136,1.51013 0.388628,3.03857 2.652128,12.77652 1.916231,8.24395 1.956518,8.47096 1.668157,9.40058 -0.191101,0.61606 -0.517453,1.11448 -1.061824,1.62168 -1.974658,1.8398 -4.957863,1.23438 -6.142121,-1.2465 -0.184977,-0.38751 -1.056532,-2.91106 -1.936787,-5.60788 -0.880259,-2.69683 -1.627279,-4.87656 -1.660049,-4.84385 -0.03277,0.0327 -0.803183,2.32535 -1.712028,5.09475 -0.930543,2.83551 -1.780299,5.27158 -1.945103,5.5762 -0.843656,1.55933 -2.593368,2.39572 -4.221972,2.01814 z m 1.128939,-2.99503 c 0.119029,-0.0534 0.297083,-0.24168 0.39568,-0.41835 0.296317,-0.53089 4.018136,-12.01381 4.504143,-13.89659 0.248275,-0.96181 0.511847,-1.84964 0.585713,-1.97295 0.201383,-0.33616 0.692103,-0.62843 1.138347,-0.67798 0.506796,-0.0563 1.135547,0.22697 1.381235,0.62221 0.09572,0.15397 0.396784,1.13205 0.669025,2.17347 0.506671,1.93819 4.244442,13.43683 4.485732,13.79961 0.21582,0.3245 0.544737,0.495 0.823412,0.42686 0.367455,-0.0898 0.648788,-0.38958 0.648788,-0.6912 0,-0.14355 -0.863149,-3.9908 -1.918112,-8.54945 -2.377716,-10.27445 -2.469166,-10.73371 -2.528239,-12.69658 -0.04001,-1.32964 -0.02359,-1.58601 0.143298,-2.23614 0.307631,-1.19845 0.872724,-1.96679 1.979719,-2.6918 0.812628,-0.5322 1.144706,-0.66385 6.435645,-2.55163 2.532201,-0.90346 4.764919,-1.72974 4.961594,-1.83616 0.314844,-0.17035 0.360776,-0.23603 0.384226,-0.54938 0.03503,-0.46802 -0.236578,-0.83074 -0.622048,-0.83074 -0.148249,0 -1.000198,0.22005 -1.89322,0.48903 -4.05341,1.22078 -7.613833,1.97414 -11.278667,2.38646 -1.638922,0.18439 -5.170304,0.20709 -6.660156,0.0429 -3.924364,-0.43271 -8.079441,-1.29629 -11.755846,-2.4433 -1.638816,-0.51131 -2.012692,-0.56185 -2.271312,-0.30707 -0.261671,0.25778 -0.254395,0.79761 0.01402,1.0394 0.344965,0.31073 0.615436,0.40733 5.475631,1.95559 2.605955,0.83015 5.075156,1.66748 5.487116,1.86071 0.579115,0.27167 0.894987,0.4959 1.392522,0.98851 0.976868,0.96721 1.350667,1.8811 1.449326,3.54344 0.111858,1.88471 -0.150661,3.27322 -2.707749,14.32182 -1.255709,5.42564 -1.827944,8.05585 -1.787337,8.21524 0.05688,0.2232 0.513855,0.58025 0.743566,0.58096 0.05915,1.9e-4 0.204928,-0.0435 0.323956,-0.0969 z"
     id="path4941" />
  <path
     style="fill:#ff7f2a;stroke-width:0.0887315"
     d="m 19.134634,10.661977 c -1.928646,-0.49678 -3.519344,-2.0986601 -3.973121,-4.0010501 -0.575436,-2.41241 0.64478,-4.91398 2.945041,-6.03762004 2.740754,-1.33882 6.022011,-0.16153 7.331443,2.63047004 1.405165,2.9961 -0.371815,6.59299 -3.662554,7.4135701 -0.663108,0.16536 -1.988459,0.16265 -2.640809,-0.006 z m 2.193532,-3.0029701 c 0.640326,-0.21493 1.241078,-0.83907 1.432715,-1.4885 0.470711,-1.59511 -0.627318,-3.07038 -2.285276,-3.07038 -2.139103,0 -3.21554,2.5151 -1.710859,3.99743 0.680291,0.67019 1.623838,0.87684 2.56342,0.56145 z"
     id="path4980" />
</svg>
