<?xml version="1.0" encoding="UTF-8" standalone="no"?>
<svg
   width="48.615025"
   height="49.999851"
   viewBox="0 0 48.615025 49.999851"
   fill="none"
   stroke="currentColor"
   stroke-width="2"
   stroke-linecap="round"
   stroke-linejoin="round"
   class="feather feather-smile"
   version="1.1"
   id="svg387"
   sodipodi:docname="smile.svg"
   inkscape:version="1.1.2 (0a00cf5339, 2022-02-04)"
   xmlns:inkscape="http://www.inkscape.org/namespaces/inkscape"
   xmlns:sodipodi="http://sodipodi.sourceforge.net/DTD/sodipodi-0.dtd"
   xmlns="http://www.w3.org/2000/svg"
   xmlns:svg="http://www.w3.org/2000/svg">
  <defs
     id="defs391" />
  <sodipodi:namedview
     id="namedview389"
     pagecolor="#ffffff"
     bordercolor="#666666"
     borderopacity="1.0"
     inkscape:pageshadow="2"
     inkscape:pageopacity="0.0"
     inkscape:pagecheckerboard="0"
     showgrid="false"
     inkscape:zoom="2.9375"
     inkscape:cx="26.212766"
     inkscape:cy="-0.34042553"
     inkscape:window-width="1366"
     inkscape:window-height="714"
     inkscape:window-x="0"
     inkscape:window-y="22"
     inkscape:window-maximized="1"
     inkscape:current-layer="svg387" />
  <ellipse
     cx="24.308681"
     cy="24.999344"
     id="circle379"
     rx="22.055943"
     ry="22.693432"
     style="stroke-width:4.47449" />
  <path
     d="m 15.486304,29.538031 c 0,0 3.308392,4.538686 8.822378,4.538686 5.513984,0 8.822377,-4.538686 8.822377,-4.538686"
     id="path381"
     style="stroke-width:4.47449" />
  <line
     x1="17.691896"
     y1="18.191315"
     x2="17.713955"
     y2="18.191315"
     id="line383"
     style="stroke-width:4.47449" />
  <line
     x1="30.925465"
     y1="18.191315"
     x2="30.947521"
     y2="18.191315"
     id="line385"
     style="stroke-width:4.47449" />
  <path
     style="fill:#ff6600;stroke-width:0.190404"
     d="m 23.354463,36.236828 c -3.105901,-0.208639 -6.361179,-1.861329 -8.767646,-4.451294 -0.883267,-0.950619 -1.153549,-1.392462 -1.235273,-2.019371 -0.157622,-1.209121 0.911015,-2.421096 2.13476,-2.421096 0.678049,0 1.161455,0.262452 1.791926,0.972875 1.302389,1.467547 2.766408,2.489317 4.43461,3.095 l 0.953377,0.346148 h 1.642465 1.642463 l 0.953376,-0.346148 c 1.668202,-0.605683 3.132221,-1.627453 4.43461,-3.095 0.630473,-0.710423 1.113878,-0.972875 1.791928,-0.972875 1.223744,0 2.292381,1.211975 2.134759,2.421096 -0.07958,0.610526 -0.341374,1.051678 -1.137774,1.917336 -2.987706,3.247535 -6.721399,4.825536 -10.773581,4.553329 z"
     id="path466" />
  <path
     style="fill:#ff6600;stroke-width:0.190404"
     d="M 30.234415,20.28016 C 29.76683,20.106057 29.1905,19.566697 28.992342,19.117764 c -0.226256,-0.512594 -0.226969,-1.338705 -0.0016,-1.849232 0.223761,-0.506875 0.845409,-1.05013 1.376856,-1.203226 1.12712,-0.324695 2.305046,0.359854 2.636237,1.532046 0.478751,1.694436 -1.160101,3.28203 -2.769426,2.682808 z"
     id="path505" />
  <path
     style="fill:#ff6600;stroke-width:0.190404"
     d="m 17.000851,20.28016 c -0.467586,-0.174103 -1.043917,-0.713463 -1.242074,-1.162396 -0.226257,-0.512594 -0.226969,-1.338705 -0.0016,-1.849232 0.223762,-0.506875 0.845411,-1.05013 1.376857,-1.203226 1.12712,-0.324695 2.305045,0.359854 2.636238,1.532046 0.478749,1.694436 -1.160102,3.28203 -2.769426,2.682808 z"
     id="path544" />
  <path
     style="fill:#ff7f2a;stroke-width:0.190404"
     d="M 22.994709,49.861258 C 17.009503,49.526235 11.418669,46.945665 7.1771129,42.560307 5.2611371,40.579375 3.8232316,38.508123 2.6284184,36.008074 1.74683,34.163422 1.3176082,32.994849 0.89548133,31.290088 c -1.0674926,-4.311073 -1.0674926,-8.270414 0,-12.581487 C 1.3176082,17.00384 1.74683,15.835268 2.6284184,13.990616 7.6323956,3.5202029 19.090677,-1.9781879 30.076123,0.819513 c 6.973274,1.7759071 12.753294,6.5600529 15.912821,13.171103 0.881587,1.844652 1.31081,3.013224 1.732937,4.717985 0.924371,3.733081 1.041143,7.108516 0.374909,10.837313 -1.575303,8.816714 -7.728143,16.120954 -16.045066,19.047627 -1.807373,0.636002 -4.218031,1.137103 -5.900063,1.226438 -0.523245,0.0278 -1.183649,0.06322 -1.467559,0.07875 -0.283912,0.01543 -1.044138,-0.0013 -1.689393,-0.03746 z m 4.055041,-4.589676 c 4.328269,-0.621137 8.25066,-2.637276 11.339325,-5.828504 2.697443,-2.787014 4.557929,-6.265565 5.339249,-9.98279 C 45.17949,22.55617 43.21552,15.55943 38.434699,10.601473 37.284485,9.408644 36.499431,8.7450413 35.188466,7.8574467 32.817762,6.252351 29.924996,5.139725 27.04975,4.7271065 c -1.392515,-0.1998361 -4.089622,-0.1998361 -5.482137,0 -4.337212,0.6224211 -8.223466,2.620727 -11.340131,5.8310795 -1.7246678,1.776511 -3.1647633,3.918552 -4.0862943,6.078077 -3.3467694,7.842851 -1.7415127,16.801251 4.0862943,22.804242 3.082488,3.175147 6.975617,5.189604 11.265547,5.829234 1.265471,0.188674 4.24788,0.189671 5.556721,0.0018 z"
     id="path583" />
  <path
     style="fill:#ff7f2a;stroke-width:0.190404"
     d="m 22.949543,36.052421 c -2.801585,-0.327049 -5.751247,-1.839119 -7.93721,-4.06881 -1.097878,-1.119841 -1.426668,-1.622721 -1.478089,-2.260723 -0.05206,-0.64594 0.09558,-1.091607 0.505508,-1.525896 0.472893,-0.500996 0.848948,-0.67699 1.446552,-0.67699 0.676948,0 0.923713,0.147212 1.888444,1.126499 1.446104,1.467941 2.630222,2.264703 4.325356,2.910422 l 0.910989,0.347018 h 1.697589 1.697587 l 0.910988,-0.347398 c 1.674569,-0.638586 2.864729,-1.438121 4.317157,-2.900213 0.449521,-0.452511 0.944015,-0.893304 1.098875,-0.979539 0.37062,-0.206375 1.227541,-0.204015 1.609043,0.0045 0.407443,0.222623 0.879958,0.727218 1.032308,1.102381 0.169677,0.417844 0.161434,1.134254 -0.01768,1.522321 -0.378105,0.81983 -1.99269,2.440116 -3.493166,3.505507 -2.403802,1.706779 -5.687323,2.571005 -8.514373,2.240983 z"
     id="path670" />
  <path
     style="fill:#ff7f2a;stroke-width:0.190404"
     d="m 30.174621,20.075721 c -0.376094,-0.181603 -0.641566,-0.429353 -0.932146,-0.869921 -0.346236,-0.524954 -0.346214,-1.485392 4.7e-5,-2.033259 0.801277,-1.267806 2.425145,-1.351098 3.29158,-0.168832 0.71738,0.978881 0.404878,2.367103 -0.674453,2.996111 -0.435048,0.253536 -1.241885,0.289879 -1.685028,0.0759 z"
     id="path709" />
  <path
     style="fill:#ff5555;fill-opacity:1;stroke-width:0.190404"
     d="M 16.941058,20.075721 C 16.564961,19.894118 16.29949,19.646368 16.008911,19.2058 c -0.346236,-0.524954 -0.346214,-1.485392 4.7e-5,-2.033259 0.801276,-1.267806 2.425146,-1.351098 3.291577,-0.168832 0.717381,0.978881 0.40488,2.367103 -0.674451,2.996111 -0.435048,0.253536 -1.241885,0.289879 -1.685026,0.0759 z"
     id="path748" />
  <path
     style="fill:#ff5555;fill-opacity:1;stroke-width:0.190404"
     d="M 22.196941,49.668468 C 16.49214,49.103649 11.318485,46.580325 7.2424137,42.374759 5.3032846,40.374024 3.9390768,38.38431 2.6617419,35.693789 1.5461126,33.343876 0.87155663,31.076589 0.45120763,28.263838 c -0.2161583,-1.446416 -0.2161583,-5.08257 0,-6.528986 0.5427811,-3.632 1.62661127,-6.718878 3.39474677,-9.668645 C 7.8781258,5.3393696 14.593576,1.0676312 22.290796,0.3333326 c 2.620514,-0.2499913 5.225407,-0.016362 8.038059,0.7209465 1.658589,0.4347782 2.794138,0.8749965 4.58545,1.7776467 9.654042,4.8647123 14.991735,15.7578132 13.042715,26.6174212 -0.887185,4.943245 -3.185522,9.438466 -6.656182,13.018536 -1.900316,1.960224 -3.959078,3.468476 -6.477458,4.745396 -2.344634,1.188825 -4.717176,1.940032 -7.30993,2.314508 -1.241638,0.179323 -4.149062,0.256266 -5.316509,0.140676 z m 5.959799,-4.433307 c 4.349766,-0.969397 7.693264,-2.86842 10.65255,-6.050384 3.244067,-3.488173 5.083776,-7.757958 5.460357,-12.67297 C 44.646622,21.59164 43.230528,16.613472 40.315906,12.612744 39.583954,11.608041 37.895531,9.78966 36.979117,9.019121 34.726336,7.1249439 31.94337,5.7203152 28.944826,4.9640275 27.223187,4.5297982 26.33072,4.4512622 23.729866,4.5051177 21.083178,4.5599226 20.067699,4.7262189 17.940564,5.4531821 11.71823,7.5797077 6.6898851,13.033539 5.0276224,19.458785 4.1452481,22.869482 4.0433138,25.842558 4.6948083,29.165867 6.177908,36.731245 11.960088,43.012024 19.210211,44.932932 c 1.961492,0.519694 2.584246,0.582248 5.426963,0.545112 2.21345,-0.02891 2.714674,-0.0635 3.519566,-0.242883 z"
     id="path5113" />
  <path
     style="fill:#ff5555;fill-opacity:1;stroke-width:0.190404"
     d="m 22.150016,35.771501 c -2.815126,-0.616607 -5.220142,-1.997485 -7.296762,-4.189543 -0.889372,-0.938811 -1.242345,-1.612554 -1.173596,-2.240123 0.08412,-0.767882 0.781162,-1.533088 1.506903,-1.654263 0.662721,-0.110653 0.943208,0.02421 1.897249,0.91228 1.888178,1.757603 2.873335,2.423208 4.594787,3.104394 0.74593,0.295167 0.755665,0.296263 2.630085,0.296263 1.872192,0 1.885012,-0.0014 2.624738,-0.294513 1.686536,-0.668197 2.787048,-1.397995 4.342308,-2.879576 1.008536,-0.960759 1.3383,-1.171461 1.833417,-1.171461 0.485901,0 0.894302,0.195936 1.309262,0.628098 0.420038,0.437463 0.580694,0.890705 0.518138,1.461752 -0.06029,0.550257 -0.389241,1.038347 -1.395571,2.070642 -1.941619,1.991723 -4.137266,3.252622 -6.732973,3.866561 -1.221702,0.288957 -3.543656,0.333566 -4.657985,0.08948 z"
     id="path5152" />
  <path
     style="fill:#ff5555;fill-opacity:1;stroke-width:0.190404"
     d="m 30.033841,19.79465 c -0.724821,-0.464486 -1.064546,-1.399314 -0.803865,-2.212013 0.147003,-0.45831 0.835491,-1.09972 1.270579,-1.183703 1.234935,-0.238371 2.251955,0.579084 2.251955,1.810068 0,0.45465 -0.0484,0.620075 -0.280003,0.957005 -0.442785,0.644162 -0.711583,0.801294 -1.432725,0.837536 -0.540706,0.02718 -0.683999,-0.0026 -1.005941,-0.208893 z"
     id="path5191" />
</svg>
